<svg width="60" height="60" viewBox="0 0 60 60" fill="none" xmlns="http://www.w3.org/2000/svg">
<path d="M40.8686 18.8738C42.3407 18.6139 43.75 19.601 44.0096 21.0733C44.0939 21.5513 44.5496 21.8719 45.0279 21.7863C45.5059 21.7021 45.8253 21.2462 45.741 20.7681C45.313 18.3412 42.9901 16.7138 40.5635 17.1428C38.1366 17.5706 36.5105 19.8934 36.9382 22.3202C37.0135 22.7467 37.3842 23.0467 37.803 23.0467C37.8536 23.0467 37.905 23.0423 37.9566 23.0332C38.4346 22.9489 38.7539 22.4931 38.6697 22.0148C38.4096 20.5427 39.3964 19.1337 40.8686 18.8738Z" fill="#263238"/>
<path d="M59.3619 23.9771C57.764 16.3151 53.2859 9.67088 46.7529 5.26803C40.2218 0.866348 32.3815 -0.793144 24.6767 0.594942C17.4453 1.89772 10.9632 5.7935 6.42413 11.5647C6.12401 11.9463 6.18999 12.4991 6.57155 12.7991C6.95323 13.0992 7.50577 13.033 7.80589 12.6515C12.0787 7.21885 18.1808 3.55147 24.9884 2.32498C32.2407 1.01881 39.6209 2.58139 45.7707 6.72584C51.9214 10.8711 56.1372 17.1252 57.6412 24.3361C58.037 26.2339 58.2389 28.1719 58.242 30.097C58.2415 30.1085 58.2401 30.1197 58.2401 30.1312C58.2392 30.347 58.1502 30.5435 57.976 30.7151C57.7028 30.9842 57.2706 31.1497 56.8366 31.1438C56.8073 31.1442 56.7775 31.1449 56.7482 31.1474C55.2658 31.1879 53.7777 31.3383 52.3248 31.5943C50.9928 31.8292 49.6898 32.1501 48.4205 32.5521C48.4436 32.1048 48.4485 31.6567 48.4346 31.211C48.4097 30.4169 48.002 29.6787 47.3437 29.2358C46.679 28.789 45.8672 28.6924 45.1162 28.9711C42.7064 29.8656 37.5999 31.5535 30.473 32.8103C23.3454 34.067 17.9687 34.2268 15.3996 34.2108H15.3833C14.5888 34.2108 13.8655 34.5786 13.3969 35.2217C12.9299 35.8629 12.7992 36.6961 13.0476 37.4506C13.5859 39.0869 14.3896 40.6283 15.415 42.0218C15.4463 42.0755 15.4834 42.1253 15.5251 42.171C16.7567 43.8067 18.2972 45.2328 20.0774 46.3606C22.998 48.2109 26.4692 49.1969 29.9903 49.1968C29.9952 49.1968 30 49.1967 30.005 49.1967C28.9505 51.6267 28.219 54.2007 27.8359 56.8706C27.6323 57.8783 26.215 58.1004 25.9244 58.0707C20.1039 57.2237 14.7668 54.62 10.4876 50.5384C6.11042 46.3632 3.23991 40.9978 2.18616 35.0218C1.03655 28.5027 2.22038 21.7589 5.51968 16.0325C5.76202 15.6119 5.61753 15.0744 5.19694 14.8321C4.77647 14.5897 4.23894 14.7343 3.99647 15.1549C0.491396 21.2385 -0.766377 28.4025 0.454717 35.3274C1.57397 41.6751 4.62378 47.3751 9.27401 51.8109C13.8311 56.1576 19.5187 58.9265 25.7216 59.8186C25.9486 59.8512 26.176 59.8712 26.403 59.8789C26.4775 59.8816 26.5521 59.8829 26.6266 59.8829C28.063 59.8828 29.4673 59.3878 30.6106 58.4683C30.6162 58.4638 30.6221 58.4597 30.6277 58.4551C30.7042 58.3931 30.7797 58.3291 30.8537 58.2634L52.1945 39.3172C52.5575 38.9949 52.5905 38.4394 52.2682 38.0763C51.946 37.7134 51.3904 37.6801 51.0273 38.0026L29.6873 56.9483C29.6869 56.9487 29.6864 56.9489 29.6861 56.9492C29.6543 56.9775 29.6213 57.0037 29.5889 57.0309C30.0143 54.1311 30.8759 51.3517 32.1391 48.7636C32.1876 48.6941 32.226 48.6174 32.253 48.5358C33.5032 46.0324 35.1304 43.7109 37.1052 41.6379C37.6382 41.0784 38.191 40.5437 38.7617 40.034C38.7723 40.0255 38.7821 40.0161 38.7924 40.0071C41.4034 37.6819 44.3946 35.884 47.6508 34.6749C47.6982 34.6619 47.7439 34.6446 47.7879 34.6241C49.3461 34.0549 50.9641 33.6196 52.6298 33.3259C53.989 33.0863 55.381 32.945 56.7684 32.9058L54.124 35.2534C53.7611 35.5756 53.728 36.1312 54.0503 36.4943C54.3726 36.8571 54.9282 36.8904 55.2912 36.568L58.326 33.8739C59.3235 32.9881 59.9214 31.7388 59.9908 30.4133C59.9965 30.315 59.9999 30.2163 59.9999 30.1172C59.9984 28.065 59.7837 25.9992 59.3619 23.9771ZM30.8484 47.4169C27.3675 47.5928 23.8948 46.6984 21.018 44.8759C19.9772 44.2165 19.0281 43.4442 18.1878 42.5812C19.066 42.619 19.954 42.6397 20.8498 42.6397C24.5863 42.6397 28.4337 42.3135 32.0363 41.6781C33.1119 41.4885 34.1991 41.2657 35.2895 41.0122C33.521 42.9677 32.0331 45.1175 30.8484 47.4169ZM46.6075 33.1901C43.3782 34.4458 40.4026 36.2532 37.7812 38.5557C35.7587 39.1269 33.7245 39.5954 31.7311 39.9469C26.8531 40.807 21.5165 41.0828 16.6519 40.7326C15.8212 39.554 15.1657 38.2644 14.7173 36.9016C14.6442 36.6799 14.6809 36.4451 14.8177 36.2573C14.9512 36.074 15.1573 35.9693 15.3836 35.9693H15.3883C18.0178 35.985 23.5138 35.8229 30.778 34.5419C38.0416 33.2612 43.2623 31.5348 45.7279 30.6197C45.9419 30.5402 46.1731 30.5679 46.3627 30.695C46.5555 30.8247 46.6701 31.0329 46.6773 31.2662C46.6973 31.9057 46.6728 32.5506 46.6075 33.1901Z" fill="#263238"/>
<path d="M15.9373 23.27C16.6504 23.1443 17.3699 23.3036 17.9632 23.7191C18.5566 24.1345 18.9524 24.7561 19.0782 25.4693C19.1624 25.9474 19.6185 26.2671 20.0964 26.1824C20.5744 26.0981 20.8937 25.6424 20.8095 25.1641C20.6023 23.9885 19.9494 22.9639 18.9715 22.2792C17.9935 21.5943 16.8075 21.3314 15.6319 21.5389C14.4563 21.7461 13.4317 22.399 12.747 23.3769C12.0623 24.3548 11.7993 25.5408 12.0066 26.7165C12.0818 27.1429 12.4526 27.4429 12.8712 27.4429C12.9218 27.4429 12.9733 27.4386 13.0248 27.4295C13.5028 27.3452 13.8222 26.8893 13.7379 26.4112C13.6122 25.698 13.7717 24.9785 14.187 24.3853C14.6025 23.7918 15.224 23.3958 15.9373 23.27Z" fill="#263238"/>
</svg>
