<svg width="42" height="42" viewBox="0 0 42 42" fill="none" xmlns="http://www.w3.org/2000/svg">
<path d="M28.6079 13.2117C29.6384 13.0298 30.6249 13.7207 30.8066 14.7514C30.8656 15.086 31.1846 15.3103 31.5194 15.2504C31.854 15.1915 32.0776 14.8724 32.0186 14.5377C31.719 12.8389 30.093 11.6997 28.3944 12C26.6955 12.2994 25.5572 13.9254 25.8566 15.6242C25.9093 15.9227 26.1689 16.1327 26.462 16.1327C26.4974 16.1327 26.5334 16.1297 26.5695 16.1233C26.9041 16.0643 27.1276 15.7452 27.0687 15.4104C26.8866 14.3799 27.5773 13.3936 28.6079 13.2117Z" fill="#3D9AE2"/>
<path d="M41.5533 16.784C40.4347 11.4205 37.3001 6.76962 32.727 3.68762C28.1552 0.606447 22.667 -0.555198 17.2736 0.416462C12.2116 1.3284 7.67417 4.05545 4.49685 8.09533C4.28677 8.36242 4.33295 8.74936 4.60004 8.95936C4.86722 9.16944 5.254 9.1231 5.46408 8.85608C8.45502 5.0532 12.7266 2.48603 17.4918 1.62749C22.5684 0.713169 27.7346 1.80697 32.0394 4.70809C36.3449 7.60978 39.296 11.9876 40.3488 17.0353C40.6259 18.3638 40.7672 19.7203 40.7693 21.0679C40.769 21.076 40.768 21.0838 40.768 21.0919C40.7674 21.2429 40.7051 21.3804 40.5831 21.5005C40.3919 21.689 40.0894 21.8048 39.7855 21.8007C39.765 21.8009 39.7442 21.8014 39.7237 21.8032C38.686 21.8315 37.6444 21.9368 36.6273 22.116C35.6949 22.2804 34.7828 22.5051 33.8943 22.7865C33.9105 22.4734 33.9139 22.1597 33.9042 21.8477C33.8868 21.2919 33.6014 20.7751 33.1405 20.4651C32.6752 20.1523 32.107 20.0847 31.5813 20.2798C29.8945 20.9059 26.3199 22.0875 21.3311 22.9672C16.3418 23.8469 12.5781 23.9588 10.7797 23.9475H10.7683C10.2121 23.9475 9.70583 24.205 9.37779 24.6552C9.0509 25.104 8.95943 25.6873 9.13326 26.2155C9.51011 27.3609 10.0727 28.4398 10.7905 29.4152C10.8124 29.4528 10.8384 29.4877 10.8676 29.5197C11.7296 30.6647 12.808 31.663 14.0541 32.4525C16.0985 33.7476 18.5284 34.4379 20.9932 34.4378C20.9966 34.4378 21 34.4377 21.0034 34.4377C20.2653 36.1387 19.7533 37.9405 19.4851 39.8094C19.3425 40.5148 18.3505 40.6703 18.147 40.6495C14.0727 40.0566 10.3367 38.234 7.34128 35.3769C4.27725 32.4543 2.2679 28.6985 1.53027 24.5153C0.725544 19.9519 1.55422 15.2312 3.86373 11.2228C4.03337 10.9284 3.93223 10.5521 3.63782 10.3824C3.34349 10.2128 2.96721 10.314 2.79749 10.6084C0.343935 14.8669 -0.536507 19.8817 0.318259 24.7292C1.10174 29.1726 3.2366 33.1626 6.49177 36.2676C9.68172 39.3103 13.663 41.2486 18.0051 41.873C18.164 41.8958 18.3231 41.9098 18.482 41.9153C18.5342 41.9171 18.5865 41.918 18.6385 41.918C19.6441 41.918 20.6271 41.5715 21.4274 40.9278C21.4313 40.9246 21.4354 40.9218 21.4393 40.9186C21.4929 40.8752 21.5457 40.8304 21.5976 40.7844L36.5361 27.522C36.7902 27.2965 36.8133 26.9076 36.5877 26.6534C36.3621 26.3994 35.9732 26.3761 35.7191 26.6018L20.781 39.8638C20.7808 39.8641 20.7805 39.8642 20.7802 39.8645C20.758 39.8842 20.7349 39.9026 20.7122 39.9216C21.01 37.8918 21.6131 35.9462 22.4973 34.1345C22.5313 34.0859 22.5582 34.0322 22.577 33.975C23.4522 32.2227 24.5912 30.5976 25.9736 29.1465C26.3467 28.7549 26.7336 28.3806 27.1331 28.0238C27.1406 28.0178 27.1474 28.0113 27.1546 28.005C28.9824 26.3773 31.0762 25.1188 33.3555 24.2725C33.3887 24.2634 33.4207 24.2512 33.4515 24.2369C34.5422 23.8384 35.6748 23.5337 36.8408 23.3281C37.7923 23.1604 38.7666 23.0615 39.7378 23.034L37.8868 24.6774C37.6327 24.903 37.6096 25.2919 37.8352 25.546C38.0608 25.8 38.4497 25.8233 38.7038 25.5976L40.8282 23.7117C41.5264 23.0917 41.9449 22.2172 41.9935 21.2893C41.9975 21.2205 41.9999 21.1514 41.9999 21.082C41.9988 19.6455 41.8486 18.1994 41.5533 16.784ZM21.5938 33.1918C19.1572 33.3149 16.7263 32.6889 14.7125 31.4131C13.984 30.9515 13.3196 30.4109 12.7314 29.8069C13.3461 29.8333 13.9678 29.8478 14.5948 29.8478C17.2104 29.8478 19.9035 29.6194 22.4254 29.1747C23.1783 29.0419 23.9393 28.886 24.7026 28.7085C23.4647 30.0774 22.4231 31.5823 21.5938 33.1918ZM32.6252 23.233C30.3647 24.1121 28.2818 25.3773 26.4468 26.989C25.0311 27.3888 23.6071 27.7168 22.2117 27.9628C18.7971 28.5649 15.0615 28.7579 11.6563 28.5128C11.0748 27.6878 10.616 26.7851 10.302 25.8311C10.2509 25.6759 10.2766 25.5115 10.3723 25.3801C10.4658 25.2518 10.6101 25.1785 10.7685 25.1785H10.7717C12.6124 25.1895 16.4596 25.076 21.5446 24.1794C26.629 23.2828 30.2835 22.0744 32.0095 21.4338C32.1593 21.3782 32.3211 21.3975 32.4538 21.4865C32.5888 21.5773 32.669 21.723 32.6741 21.8863C32.688 22.334 32.6709 22.7854 32.6252 23.233Z" fill="#3D9AE2"/>
<path d="M11.156 16.289C11.6552 16.201 12.1589 16.3126 12.5742 16.6034C12.9895 16.8942 13.2666 17.3293 13.3546 17.8285C13.4136 18.1632 13.7329 18.387 14.0674 18.3277C14.402 18.2687 14.6256 17.9497 14.5666 17.6149C14.4215 16.792 13.9645 16.0748 13.28 15.5955C12.5954 15.1161 11.7652 14.932 10.9423 15.0773C10.1193 15.2223 9.40213 15.6793 8.92282 16.3639C8.44351 17.0484 8.25943 17.8786 8.40455 18.7016C8.45721 19.0001 8.71676 19.2101 9.00977 19.2101C9.04521 19.2101 9.08122 19.2071 9.11732 19.2007C9.45192 19.1417 9.67546 18.8226 9.61648 18.4879C9.52846 17.9886 9.6401 17.485 9.93082 17.0697C10.2217 16.6543 10.6567 16.3771 11.156 16.289Z" fill="#3D9AE2"/>
</svg>
